<?xml version="1.0" encoding="UTF-8"?><svg id="Livello_1" xmlns="http://www.w3.org/2000/svg" width="809.8701" height="710.4857" xmlns:xlink="http://www.w3.org/1999/xlink" viewBox="0 0 809.8701 710.4857"><defs><clipPath id="clippath"><path d="m252.8304,433.4361H31.2078V39.4404s221.6226,0,221.6226,0v393.9957Zm263.0003,0h-221.6226V135.8687s221.6226,0,221.6226,0v297.5674Zm263.0003,0h-221.6226V39.4404s221.6226,0,221.6226,0v393.9957Z" style="fill:none;"/></clipPath></defs><g style="clip-path:url(#clippath);"><path d="m546.2762,0H11.3725v446.7368h788.1856V0h-253.2819Z" style="fill:#1b4ac2;"/><polygon points="405.4661 318.303 134.729 318.303 134.729 153.5979 149.3083 153.5979 149.3083 303.7237 405.4661 303.7237 405.4661 318.303" style="fill:#9cee82;"/><polygon points="675.3085 318.303 404.5739 318.303 404.5739 303.7237 660.7292 303.7237 660.7292 153.5979 675.3085 153.5979 675.3085 318.303" style="fill:#9cee82;"/><circle cx="405.4653" cy="322.7298" r="54.1773" style="fill:#9cee82;"/><circle cx="668.0197" cy="153.5999" r="54.1773" style="fill:#9cee82;"/><circle cx="142.0191" cy="153.5999" r="54.1773" style="fill:#9cee82;"/></g><path d="m0,636.7064l23.6299-7.9902c5.0996,18.6992,17.1699,24.3105,28.5596,24.3105,11.7295,0,22.0996-5.6113,22.0996-16.3203,0-11.2207-11.2197-14.791-22.4395-18.3594l-11.9004-3.5703c-13.0898-3.9102-35.3594-12.75-35.3594-37.9102,0-23.9688,20.2295-39.0996,45.7295-39.0996,25.1602,0,41.8193,14.791,46.0693,30.9395l-23.1191,9.3496c-4.0801-10.709-11.7305-17.3398-23.46-17.3398-11.2197,0-18.7002,5.9512-18.7002,14.1113,0,10.709,12.4102,15.2988,22.9502,18.6992l13.9395,4.4199c12.0703,3.9102,33.1494,10.5391,33.1494,35.6992,0,23.9707-18.8691,42.3301-48.6191,42.3301-25.8398,0-46.2393-13.9395-52.5293-39.2695Z" style="fill:#fff;"/><path d="m118.4883,578.2259h23.46v14.1113h.3398c8.3301-11.7305,18.3604-16.8301,30.5996-16.8301,25.8398,0,41.3096,22.4395,41.3096,49.8086,0,31.791-20.5693,50.6602-43.0098,50.6602-14.2793,0-23.6299-7.3105-28.8994-15.1309v49.6406h-23.7998v-132.2598Zm47.2598,74.9707c13.9395,0,23.7998-11.5605,23.7998-27.3711,0-16.1484-10.0303-27.5391-23.7998-27.5391s-23.9697,11.3906-23.9697,27.5391,10.2002,27.3711,23.9697,27.3711Z" style="fill:#fff;"/><path d="m243.7754,534.3666c8.3301,0,14.6201,6.6309,14.6201,14.4512,0,8.5-6.29,15.1289-14.6201,15.1289-8.5,0-14.79-6.6289-14.79-15.1289,0-7.8203,6.29-14.4512,14.79-14.4512Zm-12.0693,43.8594h23.7998v94.8594h-23.7998v-94.8594Z" style="fill:#fff;"/><path d="m278.7949,578.2259h23.459v13.9414h.3408c6.9697-11.3906,17.8496-16.6602,29.4092-16.6602,17.5098,0,33.1494,11.9004,33.1494,37.7402v59.8379h-23.7998v-49.2988c0-12.5801-3.2295-25.5-17.8496-25.5-11.2197,0-20.9092,7.8203-20.9092,25.8398v48.959h-23.7998v-94.8594Z" style="fill:#fff;"/><path d="m381.6445,626.1654c0-29.2383,19.7197-50.6582,47.4297-50.6582,23.6299,0,45.7295,15.6387,45.7295,50.4883v6.4609h-69.3594c2.04,14.2793,12.75,22.0996,25.1592,22.0996,9.6904,0,18.0205-5.2695,22.2705-15.1289l22.2695,9.0098c-6.29,15.4688-22.2695,27.5391-44.3701,27.5391-28.0488,0-49.1289-19.7207-49.1289-49.8105Zm69.1895-10.0293c-1.7002-14.6191-11.2197-20.2285-21.9297-20.2285-12.2402,0-19.8906,8.3281-22.2705,20.2285h44.2002Z" style="fill:#fff;"/><path d="m487.5537,606.9564c0-40.7988,30.0898-69.1895,67.1494-69.1895,37.2295,0,66.9795,28.9004,66.9795,69.1895,0,40.1191-29.5801,69.0195-66.9795,69.0195-36.8896,0-67.1494-28.2207-67.1494-69.0195Zm67.3193,45.2188c22.7793,0,40.29-19.209,40.29-45.2188,0-25.5-17-45.3887-40.29-45.3887-22.9502,0-40.7998,19.0391-40.7998,45.3887,0,26.6895,18.1904,45.2188,40.7998,45.2188Z" style="fill:#fff;"/><path d="m640.041,578.2259h23.46v14.1113h.3398c8.3301-11.7305,18.3604-16.8301,30.5996-16.8301,25.8398,0,41.3096,22.4395,41.3096,49.8086,0,31.791-20.5693,50.6602-43.0088,50.6602-14.2803,0-23.6299-7.3105-28.9004-15.1309v49.6406h-23.7998v-132.2598Zm47.2598,74.9707c13.9404,0,23.7998-11.5605,23.7998-27.3711,0-16.1484-10.0303-27.5391-23.7998-27.5391s-23.9697,11.3906-23.9697,27.5391,10.2002,27.3711,23.9697,27.3711Z" style="fill:#fff;"/><path d="m760.4014,642.8255v-43.0098h-18.7002v-21.5898h18.7002v-26.8594h23.7988v26.8594h25.6699v21.5898h-25.6699v34.5098c0,9.0098,0,20.0605,12.9199,20.0605,4.5908,0,9.0107-1.3594,12.75-3.4004v21.4199c-4.7598,2.5508-11.0498,3.5703-17.6797,3.5703-31.7891,0-31.7891-23.2891-31.7891-33.1504Z" style="fill:#fff;"/></svg>
